<?xml version="1.0" encoding="UTF-8"?>
<!DOCTYPE svg PUBLIC "-//W3C//DTD SVG 1.0//EN" "http://www.w3.org/TR/2001/REC-SVG-20010904/DTD/svg10.dtd">
<!-- Creator: CorelDRAW 2018 (64 Bit Versión de evaluación) -->
<svg xmlns="http://www.w3.org/2000/svg" xml:space="preserve" width="32.072mm" height="17.0845mm" version="1.0" shape-rendering="geometricPrecision" text-rendering="geometricPrecision" image-rendering="optimizeQuality" fill-rule="evenodd" clip-rule="evenodd"
viewBox="0 0 1357.58 723.17"
 xmlns:xlink="http://www.w3.org/1999/xlink">
 <g id="Capa_x0020_1">
  <metadata id="CorelCorpID_0Corel-Layer"/>
  <polygon fill="#333333" points="-0,723.17 -0,0 233.36,0 233.36,723.17 "/>
  <path fill="white" fill-rule="nonzero" d="M66.19 379.69c0,22.03 4.43,38.82 13.23,50.52 8.8,11.63 21.54,17.47 38.09,17.47 17.05,0 29.78,-5.48 38.21,-16.49 8.49,-11.01 12.74,-27.56 12.74,-49.72 0,-21.84 -4.43,-38.46 -13.35,-49.78 -8.86,-11.26 -21.91,-16.92 -39.07,-16.92 -15.44,0 -27.62,5.78 -36.55,17.29 -8.86,11.56 -13.29,27.44 -13.29,47.62zm101.53 74.7c-6.34,9.41 -14.46,16.55 -24.31,21.41 -9.85,4.86 -21.23,7.32 -34.09,7.32 -25.84,0 -46.46,-9.23 -61.96,-27.69 -15.51,-18.46 -23.26,-42.95 -23.26,-73.47 0,-31.38 7.75,-56.42 23.26,-75.07 15.51,-18.64 36.24,-27.93 62.33,-27.93 12.74,0 23.87,2.46 33.35,7.45 9.47,4.98 17.84,12.74 25.04,23.13l0 -24.3 39.5 0 0 186.5c0,31.75 -7.2,54.45 -21.6,68.05 -14.46,13.66 -37.96,20.49 -70.7,20.49 -26.27,0 -46.82,-5.23 -61.59,-15.69 -14.83,-10.52 -22.33,-25.11 -22.58,-43.75l42.46 0c0.61,8.31 4.43,14.65 11.51,18.95 7.07,4.37 17.16,6.52 30.27,6.52 18.46,0 31.81,-3.81 40.06,-11.44 8.18,-7.63 12.31,-20.25 12.31,-37.91l0 -22.58z"/>
  <path id="1" fill="#333333" fill-rule="nonzero" d="M357.47 281.18l0 42.46 -11.01 0c-16.55,0 -29.04,4.19 -37.35,12.55 -8.37,8.3 -12.55,20.86 -12.55,37.59l0 106.02 -40.98 0 0 -194.56 38.82 0 0 34.27c5.66,-12.98 12.99,-22.64 21.97,-29.1 9.05,-6.4 19.63,-9.6 31.93,-9.6 0.12,0 0.43,0 1.05,0 2.89,0.25 5.6,0.37 8.12,0.37z"/>
  <path id="2" fill="#333333" fill-rule="nonzero" d="M501.08 382.27c-8.67,4.43 -22.4,8.06 -41.28,10.83 -6.83,1.1 -11.88,1.9 -15.14,2.52 -9.6,1.78 -16.8,5.17 -21.47,10.03 -4.68,4.86 -7.02,11.26 -7.02,19.2 0,8.92 2.77,15.81 8.31,20.67 5.54,4.86 13.35,7.32 23.44,7.32 15.26,0 27.94,-4.3 38.02,-12.98 10.09,-8.68 15.14,-19.75 15.14,-33.23l0 -24.36zm1.79 71.87c-7.94,10.15 -17.47,18.03 -28.67,23.57 -11.14,5.6 -23.14,8.37 -35.87,8.37 -19.56,0 -34.95,-5.11 -46.08,-15.32 -11.14,-10.21 -16.67,-24.36 -16.67,-42.39 0,-19.69 5.97,-34.52 17.84,-44.42 11.94,-9.91 33.47,-16.86 64.73,-20.8 0.99,-0.12 2.4,-0.3 4.19,-0.55 26.09,-3.32 39.13,-10.77 39.13,-22.27 0,-9.42 -3.26,-16.31 -9.72,-20.74 -6.52,-4.43 -16.55,-6.65 -30.15,-6.65 -12.61,0 -22.27,2.65 -29.04,7.94 -6.7,5.29 -10.09,12.86 -10.09,22.76l0 1.42 -39.13 0 0 -3.26c0,-19.38 7.14,-34.7 21.35,-45.96 14.28,-11.26 33.72,-16.86 58.39,-16.86 25.84,0 45.35,4.86 58.52,14.52 13.17,9.72 19.75,24.06 19.75,43.07l0 96.42c0,7.5 0.86,12.37 2.59,14.65 1.78,2.27 4.86,3.45 9.29,3.45 0.8,0 1.72,-0.06 2.77,-0.12 0.98,-0.06 2.77,-0.19 5.29,-0.43l0 30.02c-3.69,0.99 -7.39,1.72 -10.89,2.22 -3.57,0.49 -6.95,0.74 -10.21,0.74 -12.49,0 -21.72,-2.4 -27.81,-7.2 -6.09,-4.8 -9.23,-12.18 -9.47,-22.15z"/>
  <path id="3" fill="#333333" fill-rule="nonzero" d="M672.69 213.19l0 34.76 -8.8 -0.74c-2.28,-0.25 -4.12,-0.37 -5.6,-0.37 -7.38,0 -12.55,1.54 -15.32,4.68 -2.83,3.14 -4.25,9.41 -4.25,18.95l0 14.77 33.96 0 0 30.64 -33.96 0 0 163.92 -40.98 0 0 -163.92 -29.91 0 0 -30.64 29.91 0 0 -24c0,-16.92 4.12,-29.54 12.36,-37.78 8.19,-8.3 20.74,-12.43 37.53,-12.43 4.43,0 12.37,0.68 23.75,1.97l1.3 0.19z"/>
  <path id="4" fill="#333333" fill-rule="nonzero" d="M697.42 285.24l41.35 0 0 194.56 -41.35 0 0 -194.56zm0 -70.88l41.35 0 0 41.72 -41.35 0 0 -41.72z"/>
  <polygon id="5" fill="#333333" fill-rule="nonzero" points="787.56,214.35 828.17,214.35 828.17,364.55 904.59,285.24 954.86,285.24 884.78,356.8 956.28,479.8 908.35,479.8 855.92,386.76 828.17,414.88 828.17,479.8 787.56,479.8 "/>
  <path id="6" fill="#333333" fill-rule="nonzero" d="M1070.05 314.4c-17.16,0 -30.39,5.9 -39.62,17.66 -9.29,11.75 -13.91,28.67 -13.91,50.64 0,21.96 4.61,38.82 13.78,50.46 9.17,11.63 22.46,17.47 39.75,17.47 17.17,0 30.34,-5.85 39.44,-17.47 9.17,-11.63 13.72,-28.49 13.72,-50.46 0,-21.96 -4.55,-38.89 -13.72,-50.64 -9.1,-11.75 -22.27,-17.66 -39.44,-17.66zm-0.43 -35.44c29.78,0 53.16,9.17 70.2,27.56 16.98,18.4 25.47,43.75 25.47,76.05 0,32.36 -8.43,57.65 -25.35,75.99 -16.86,18.34 -40.18,27.51 -69.96,27.51 -29.96,0 -53.35,-9.11 -70.21,-27.38 -16.92,-18.27 -25.35,-43.62 -25.35,-76.11 0,-32.43 8.43,-57.78 25.23,-76.11 16.8,-18.34 40.12,-27.51 69.96,-27.51zm9.35 -83.07l40.92 0 -53.9 64.61 -23.26 0 36.24 -64.61z"/>
  <path id="7" fill="#333333" fill-rule="nonzero" d="M1352.04 341.72l-39.87 0c-0.74,-9.6 -4.55,-16.92 -11.57,-21.97 -7.01,-5.05 -16.92,-7.57 -29.72,-7.57 -10.21,0 -18.33,1.91 -24.3,5.79 -5.97,3.81 -8.99,8.92 -8.99,15.26 0,6.15 2.4,11.14 7.26,14.89 4.8,3.75 13.35,7.07 25.66,9.84l24.8 5.54c23.87,5.54 40.24,12.55 49.04,21.11 8.8,8.55 13.23,20.67 13.23,36.42 0,20.55 -7.39,36.49 -22.15,47.93 -14.77,11.38 -35.44,17.11 -62.02,17.11 -26.27,0 -46.64,-6.03 -61.1,-18.09 -14.4,-12.12 -21.6,-29.23 -21.6,-51.32l40.24 0c1.23,11.94 5.6,20.8 13.11,26.64 7.57,5.85 18.64,8.8 33.16,8.8 11.94,0 21.47,-2.34 28.49,-6.95 7.01,-4.61 10.52,-10.95 10.52,-18.89 0,-5.91 -2.1,-10.59 -6.22,-13.97 -4.12,-3.45 -12.06,-6.65 -23.93,-9.66l-29.29 -7.39c-22.09,-5.41 -37.72,-12.43 -46.82,-20.92 -9.17,-8.55 -13.72,-20.12 -13.72,-34.82 0,-18.58 6.83,-33.35 20.49,-44.24 13.6,-10.89 32.18,-16.31 55.62,-16.31 24.37,0 43.75,5.66 58.15,17.04 14.34,11.39 21.54,26.58 21.54,45.72z"/>
  <path fill="#333333" fill-rule="nonzero" d="M331.19 626.86c-2.73,0 -5.08,-0.35 -6.98,-1.08 -1.9,-0.69 -3.45,-1.74 -4.63,-3.16 -1.19,-1.42 -2.07,-3.19 -2.65,-5.31 -0.61,-2.12 -0.97,-4.51 -1.13,-7.2l-0.25 0c-3.23,5.25 -7.67,9.46 -13.3,12.68 -5.63,3.21 -12.39,4.81 -20.25,4.81 -4.42,0 -8.42,-0.5 -12,-1.47 -3.59,-0.97 -6.62,-2.42 -9.13,-4.31 -2.51,-1.9 -4.41,-4.21 -5.74,-6.9 -1.33,-2.71 -1.99,-5.8 -1.99,-9.24 0,-4.58 1.1,-8.47 3.28,-11.63 2.18,-3.17 5.13,-5.73 8.86,-7.73 3.7,-1.97 8.03,-3.44 12.91,-4.39 4.91,-0.94 10.13,-1.44 15.62,-1.47l21.74 -0.25 0 -4.16c0,-7.32 -1.96,-12.58 -5.9,-15.74 -3.95,-3.17 -9.6,-4.76 -16.97,-4.76 -3.56,0 -6.73,0.27 -9.52,0.8 -2.76,0.55 -5.16,1.4 -7.2,2.59 -2.01,1.2 -3.64,2.76 -4.83,4.69 -1.21,1.92 -2.04,4.23 -2.48,6.97l-11.73 -1.12c0.55,-3.12 1.66,-6.01 3.37,-8.69 1.68,-2.67 4,-4.98 6.9,-6.9 2.93,-1.92 6.51,-3.41 10.77,-4.48 4.28,-1.07 9.21,-1.62 14.82,-1.62 11.15,0 19.64,2.34 25.47,7.05 5.82,4.71 8.75,11.53 8.75,20.45l0 31.51c0,4.19 0.58,7.37 1.74,9.52 1.13,2.14 3.34,3.21 6.62,3.21 0.8,0 1.71,-0.1 2.73,-0.27 1.02,-0.18 1.9,-0.35 2.65,-0.47l0 7.05c-1.55,0.4 -3.15,0.65 -4.75,0.8 -1.63,0.15 -3.2,0.22 -4.78,0.22zm-15.64 -39.46l-19.42 0.52c-4.19,0.05 -8.19,0.35 -11.97,0.87 -3.78,0.55 -7.09,1.44 -9.96,2.74 -2.84,1.3 -5.1,3.04 -6.78,5.26 -1.69,2.22 -2.51,5.03 -2.51,8.42 0,4.33 1.49,7.73 4.44,10.19 2.98,2.47 7.67,3.69 14.1,3.69 4.97,0 9.41,-0.77 13.38,-2.34 3.97,-1.55 7.34,-3.54 10.13,-5.95 2.76,-2.39 4.91,-5.11 6.38,-8.1 1.49,-2.99 2.23,-5.93 2.23,-8.8l0 -6.5z"/>
  <path id="1" fill="#333333" fill-rule="nonzero" d="M391.23 556.16c-3.84,0 -7.2,0.87 -10.1,2.59 -2.87,1.74 -5.27,4.03 -7.2,6.87 -1.9,2.87 -3.34,6.15 -4.3,9.89 -0.94,3.74 -1.41,7.6 -1.41,11.59l0 39.01 -11.42 0 0 -57.8c0,-1.69 0,-3.59 -0.03,-5.68 -0.03,-2.09 -0.08,-4.08 -0.14,-5.98 -0.06,-1.9 -0.08,-3.54 -0.11,-4.88 -0.03,-1.37 -0.06,-2.19 -0.06,-2.49l10.43 0c0,0.2 0.06,1.02 0.14,2.46 0.06,1.49 0.14,3.14 0.22,4.98 0.06,1.87 0.11,3.76 0.19,5.63 0.08,1.87 0.11,3.29 0.11,4.26l0.33 0c1.13,-3.17 2.43,-5.93 3.89,-8.3 1.46,-2.34 3.2,-4.28 5.27,-5.83 2.04,-1.55 4.39,-2.69 7.01,-3.51 2.62,-0.8 5.63,-1.19 9.05,-1.19 2.48,0 4.44,0.27 5.9,0.8l0 8.47c-0.97,-0.35 -2.12,-0.6 -3.45,-0.72 -1.32,-0.12 -2.76,-0.17 -4.33,-0.17z"/>
  <path id="2" fill="#333333" fill-rule="nonzero" d="M432.85 627.61c-5.85,0 -10.3,-1.47 -13.3,-4.39 -3.01,-2.94 -4.52,-7.4 -4.52,-13.43l0 -52.44 -11.26 0 0 -8.07 11.59 0 3.64 -17.64 7.45 0 0 17.64 19.53 0 0 8.07 -19.53 0 0 50.67c0,3.96 0.91,6.88 2.7,8.72 1.82,1.87 4.5,2.79 8.06,2.79 1.43,0 3.03,-0.1 4.8,-0.32 1.74,-0.2 3.39,-0.5 4.97,-0.87l0 7.6c-2.15,0.47 -4.41,0.87 -6.79,1.19 -2.35,0.33 -4.8,0.47 -7.34,0.47z"/>
  <path id="3" fill="#333333" fill-rule="nonzero" d="M470.21 589.79c0,4.24 0.58,8.19 1.74,11.88 1.16,3.67 2.95,6.85 5.38,9.49 2.43,2.67 5.52,4.78 9.24,6.33 3.73,1.57 8.17,2.34 13.36,2.34 6.59,0 12.14,-1.3 16.64,-3.86 4.5,-2.57 7.65,-6.03 9.44,-10.34l10.59 1.67c-0.91,2.14 -2.26,4.41 -4.06,6.8 -1.77,2.42 -4.11,4.58 -7.04,6.55 -2.9,1.97 -6.48,3.61 -10.7,4.96 -4.22,1.32 -9.35,1.99 -15.35,1.99 -6.24,0 -11.92,-0.87 -16.97,-2.59 -5.08,-1.72 -9.38,-4.31 -12.91,-7.72 -3.53,-3.44 -6.26,-7.65 -8.19,-12.68 -1.96,-5.01 -2.92,-10.81 -2.92,-17.41 0,-7.35 1.16,-13.53 3.5,-18.54 2.35,-5.01 5.44,-9.07 9.27,-12.16 3.84,-3.09 8.17,-5.28 13.05,-6.6 4.88,-1.32 9.82,-1.97 14.84,-1.97 6.73,0 12.55,0.97 17.46,2.91 4.88,1.94 8.91,4.69 12.08,8.2 3.15,3.53 5.46,7.7 6.98,12.5 1.52,4.81 2.26,10.12 2.26,15.89l0 2.34 -67.72 0zm28.92 -34.08c-3.61,0 -7.12,0.47 -10.49,1.42 -3.37,0.94 -6.37,2.49 -8.99,4.58 -2.62,2.12 -4.77,4.86 -6.43,8.22 -1.69,3.34 -2.63,7.42 -2.85,12.23l56.29 0c-0.33,-4.08 -1.1,-7.75 -2.32,-11.01 -1.21,-3.24 -2.92,-6.03 -5.16,-8.3 -2.26,-2.29 -5.02,-4.06 -8.3,-5.28 -3.31,-1.24 -7.23,-1.87 -11.75,-1.87z"/>
  <path id="4" fill="#333333" fill-rule="nonzero" d="M612.18 589.79c0,4.24 0.58,8.19 1.74,11.88 1.16,3.67 2.95,6.85 5.38,9.49 2.43,2.67 5.52,4.78 9.24,6.33 3.73,1.57 8.17,2.34 13.36,2.34 6.59,0 12.14,-1.3 16.64,-3.86 4.5,-2.57 7.65,-6.03 9.44,-10.34l10.59 1.67c-0.91,2.14 -2.26,4.41 -4.06,6.8 -1.77,2.42 -4.11,4.58 -7.04,6.55 -2.9,1.97 -6.48,3.61 -10.7,4.96 -4.22,1.32 -9.35,1.99 -15.35,1.99 -6.24,0 -11.92,-0.87 -16.97,-2.59 -5.08,-1.72 -9.38,-4.31 -12.91,-7.72 -3.53,-3.44 -6.26,-7.65 -8.19,-12.68 -1.96,-5.01 -2.92,-10.81 -2.92,-17.41 0,-7.35 1.16,-13.53 3.5,-18.54 2.35,-5.01 5.44,-9.07 9.27,-12.16 3.84,-3.09 8.17,-5.28 13.05,-6.6 4.88,-1.32 9.82,-1.97 14.84,-1.97 6.73,0 12.55,0.97 17.46,2.91 4.88,1.94 8.91,4.69 12.08,8.2 3.15,3.53 5.46,7.7 6.98,12.5 1.52,4.81 2.26,10.12 2.26,15.89l0 2.34 -67.72 0zm28.92 -34.08c-3.61,0 -7.12,0.47 -10.49,1.42 -3.37,0.94 -6.37,2.49 -8.99,4.58 -2.62,2.12 -4.77,4.86 -6.43,8.22 -1.69,3.34 -2.63,7.42 -2.85,12.23l56.29 0c-0.33,-4.08 -1.1,-7.75 -2.32,-11.01 -1.21,-3.24 -2.92,-6.03 -5.16,-8.3 -2.26,-2.29 -5.02,-4.06 -8.3,-5.28 -3.31,-1.24 -7.23,-1.87 -11.75,-1.87z"/>
  <path id="5" fill="#333333" fill-rule="nonzero" d="M765 626.11l0 -45.07c0,-3.59 -0.41,-6.95 -1.24,-10.04 -0.85,-3.09 -2.21,-5.76 -4.11,-8.02 -1.88,-2.27 -4.33,-4.01 -7.37,-5.26 -3.01,-1.25 -6.7,-1.87 -11.06,-1.87 -4,0 -7.67,0.7 -11.01,2.12 -3.37,1.42 -6.24,3.34 -8.66,5.78 -2.43,2.42 -4.33,5.31 -5.69,8.59 -1.35,3.31 -2.01,6.88 -2.01,10.66l0 43.1 -11.42 0 0 -59.62c0,-1.64 0,-3.44 -0.03,-5.35 -0.03,-1.92 -0.08,-3.71 -0.14,-5.35 -0.06,-1.67 -0.08,-3.09 -0.11,-4.29 -0.03,-1.19 -0.05,-1.92 -0.05,-2.21l10.37 0c0,0.2 0.06,0.97 0.17,2.32 0.06,1.42 0.11,2.99 0.19,4.71 0.08,1.72 0.16,3.44 0.25,5.16 0.08,1.72 0.11,3.04 0.11,3.96l0.33 0c3.56,-5.93 7.92,-10.31 13.08,-13.18 5.16,-2.87 11.34,-4.31 18.57,-4.31 5.77,0 10.65,0.82 14.62,2.44 3.97,1.64 7.17,3.84 9.6,6.65 2.43,2.79 4.17,6.05 5.24,9.82 1.08,3.74 1.63,7.7 1.63,11.88l0 47.38 -11.26 0z"/>
  <path id="6" fill="#333333" fill-rule="nonzero" d="M913.4 626.11c0,-0.15 -0.06,-0.72 -0.17,-1.74 -0.11,-0.97 -0.22,-2.17 -0.33,-3.61 -0.11,-1.45 -0.2,-2.99 -0.25,-4.66 -0.06,-1.69 -0.08,-3.21 -0.08,-4.64l-0.16 0c-3.17,5.19 -7.4,9.17 -12.64,11.96 -5.27,2.79 -12,4.19 -20.25,4.19 -6.15,0 -11.48,-1.02 -16,-3.04 -4.52,-2.02 -8.28,-4.81 -11.21,-8.37 -2.95,-3.56 -5.13,-7.75 -6.59,-12.56 -1.46,-4.83 -2.18,-10.06 -2.18,-15.72 0,-5.8 0.74,-11.14 2.26,-16.02 1.52,-4.86 3.84,-9.1 6.98,-12.68 3.17,-3.59 7.09,-6.38 11.81,-8.39 4.72,-2.02 10.24,-3.04 16.53,-3.04 7.39,0 13.77,1.39 19.12,4.18 5.35,2.81 9.41,6.6 12.17,11.36l0.16 0c0,-0.2 0,-0.7 0,-1.49 0,-0.8 -0.03,-1.82 -0.08,-3.09 -0.05,-1.22 -0.08,-2.59 -0.08,-4.11 0,-1.52 0,-3.04 0,-4.56l0 -33.38 11.42 0 0 93.07c0,1.94 0.03,3.84 0.06,5.73 0.03,1.87 0.06,3.54 0.11,4.98 0.06,1.52 0.11,2.76 0.14,3.76 0.03,0.99 0.03,1.62 0.03,1.87l-10.76 0zm-0.66 -38.81c0,-5.85 -0.77,-10.82 -2.35,-14.9 -1.57,-4.06 -3.64,-7.32 -6.26,-9.79 -2.62,-2.46 -5.65,-4.26 -9.13,-5.38 -3.48,-1.12 -7.12,-1.67 -10.93,-1.67 -9.27,0 -16.39,2.79 -21.36,8.37 -4.94,5.58 -7.42,13.55 -7.42,23.94 0,4.88 0.58,9.27 1.74,13.15 1.16,3.91 2.92,7.23 5.3,9.97 2.37,2.71 5.35,4.83 8.91,6.3 3.59,1.49 7.81,2.24 12.66,2.24 3.81,0 7.45,-0.57 10.93,-1.69 3.48,-1.12 6.57,-2.94 9.22,-5.51 2.68,-2.57 4.77,-5.88 6.35,-9.99 1.57,-4.08 2.35,-9.12 2.35,-15.04z"/>
  <path id="7" fill="#333333" fill-rule="nonzero" d="M951.72 528.5l0 -11.81 11.43 0 0 11.81 -11.43 0zm0 97.61l0 -76.83 11.43 0 0 76.83 -11.43 0z"/>
  <path id="8" fill="#333333" fill-rule="nonzero" d="M1054.76 604.73c0,3.56 -0.77,6.75 -2.34,9.54 -1.58,2.79 -3.86,5.19 -6.85,7.15 -3.01,1.96 -6.68,3.49 -11.01,4.56 -4.36,1.07 -9.3,1.62 -14.87,1.62 -4.97,0 -9.46,-0.32 -13.49,-0.97 -4.03,-0.67 -7.56,-1.74 -10.59,-3.24 -3.06,-1.52 -5.6,-3.53 -7.67,-6.08 -2.04,-2.54 -3.56,-5.68 -4.52,-9.41l10.59 -2.12c0.77,2.91 1.88,5.28 3.37,7.12 1.49,1.84 3.37,3.31 5.57,4.39 2.24,1.07 4.75,1.77 7.56,2.14 2.81,0.37 5.88,0.55 9.19,0.55 3.48,0 6.68,-0.28 9.63,-0.85 2.95,-0.55 5.55,-1.42 7.73,-2.59 2.2,-1.17 3.92,-2.67 5.13,-4.44 1.21,-1.79 1.82,-3.93 1.82,-6.43 0,-2.67 -0.77,-4.86 -2.32,-6.5 -1.54,-1.67 -3.61,-3.06 -6.21,-4.19 -2.59,-1.12 -5.6,-2.07 -8.99,-2.81 -3.42,-0.77 -6.96,-1.52 -10.62,-2.24 -3.59,-0.77 -7.06,-1.62 -10.51,-2.51 -3.42,-0.9 -6.51,-2.12 -9.22,-3.64 -2.7,-1.52 -4.88,-3.46 -6.57,-5.78 -1.68,-2.34 -2.51,-5.25 -2.51,-8.74 0,-6.65 2.82,-11.86 8.42,-15.64 5.6,-3.79 13.82,-5.68 24.61,-5.68 4.14,0 8.03,0.37 11.64,1.1 3.61,0.72 6.87,1.87 9.71,3.39 2.87,1.55 5.27,3.51 7.2,5.96 1.96,2.44 3.28,5.33 3.97,8.69l-10.43 1.24c-0.5,-2.44 -1.41,-4.48 -2.76,-6.13 -1.35,-1.62 -3.04,-2.94 -5.02,-3.91 -2.01,-0.97 -4.22,-1.67 -6.65,-2.09 -2.43,-0.42 -4.99,-0.62 -7.64,-0.62 -7.39,0 -12.97,1.14 -16.7,3.44 -3.72,2.26 -5.6,5.35 -5.6,9.24 0,2.35 0.63,4.29 1.9,5.81 1.27,1.55 3.01,2.81 5.21,3.84 2.23,1.02 4.91,1.89 8.03,2.62 3.15,0.72 6.59,1.49 10.37,2.27 3.78,0.77 7.53,1.64 11.28,2.59 3.75,0.94 7.15,2.21 10.13,3.84 3.01,1.6 5.44,3.66 7.26,6.13 1.85,2.49 2.76,5.63 2.76,9.41z"/>
  <path id="9" fill="#333333" fill-rule="nonzero" d="M1082.85 589.79c0,4.24 0.58,8.19 1.74,11.88 1.16,3.67 2.95,6.85 5.38,9.49 2.43,2.67 5.52,4.78 9.24,6.33 3.73,1.57 8.17,2.34 13.36,2.34 6.59,0 12.14,-1.3 16.64,-3.86 4.5,-2.57 7.65,-6.03 9.44,-10.34l10.59 1.67c-0.91,2.14 -2.26,4.41 -4.06,6.8 -1.77,2.42 -4.11,4.58 -7.04,6.55 -2.9,1.97 -6.48,3.61 -10.71,4.96 -4.22,1.32 -9.35,1.99 -15.34,1.99 -6.24,0 -11.92,-0.87 -16.97,-2.59 -5.08,-1.72 -9.38,-4.31 -12.91,-7.72 -3.53,-3.44 -6.26,-7.65 -8.19,-12.68 -1.96,-5.01 -2.92,-10.81 -2.92,-17.41 0,-7.35 1.16,-13.53 3.5,-18.54 2.35,-5.01 5.44,-9.07 9.27,-12.16 3.84,-3.09 8.17,-5.28 13.05,-6.6 4.88,-1.32 9.82,-1.97 14.84,-1.97 6.73,0 12.55,0.97 17.46,2.91 4.88,1.94 8.91,4.69 12.08,8.2 3.15,3.53 5.46,7.7 6.98,12.5 1.52,4.81 2.26,10.12 2.26,15.89l0 2.34 -67.72 0zm28.92 -34.08c-3.61,0 -7.12,0.47 -10.49,1.42 -3.37,0.94 -6.37,2.49 -8.99,4.58 -2.62,2.12 -4.77,4.86 -6.43,8.22 -1.69,3.34 -2.63,7.42 -2.85,12.23l56.29 0c-0.33,-4.08 -1.1,-7.75 -2.32,-11.01 -1.21,-3.24 -2.93,-6.03 -5.16,-8.3 -2.26,-2.29 -5.02,-4.06 -8.3,-5.28 -3.31,-1.24 -7.23,-1.87 -11.75,-1.87z"/>
  <path id="10" fill="#333333" fill-rule="nonzero" d="M1235.67 626.11l0 -45.07c0,-3.59 -0.41,-6.95 -1.24,-10.04 -0.86,-3.09 -2.21,-5.76 -4.11,-8.02 -1.88,-2.27 -4.33,-4.01 -7.37,-5.26 -3.01,-1.25 -6.7,-1.87 -11.06,-1.87 -4,0 -7.67,0.7 -11.01,2.12 -3.37,1.42 -6.24,3.34 -8.66,5.78 -2.43,2.42 -4.33,5.31 -5.69,8.59 -1.35,3.31 -2.01,6.88 -2.01,10.66l0 43.1 -11.43 0 0 -59.62c0,-1.64 0,-3.44 -0.03,-5.35 -0.03,-1.92 -0.08,-3.71 -0.14,-5.35 -0.06,-1.67 -0.08,-3.09 -0.11,-4.29 -0.03,-1.19 -0.05,-1.92 -0.05,-2.21l10.37 0c0,0.2 0.06,0.97 0.17,2.32 0.06,1.42 0.11,2.99 0.19,4.71 0.08,1.72 0.17,3.44 0.25,5.16 0.08,1.72 0.11,3.04 0.11,3.96l0.33 0c3.56,-5.93 7.92,-10.31 13.08,-13.18 5.16,-2.87 11.34,-4.31 18.57,-4.31 5.77,0 10.65,0.82 14.62,2.44 3.97,1.64 7.17,3.84 9.6,6.65 2.43,2.79 4.17,6.05 5.24,9.82 1.08,3.74 1.63,7.7 1.63,11.88l0 47.38 -11.26 0zm-11.89 -85.8c-2.35,0 -4.64,-0.52 -6.9,-1.57 -2.26,-1.05 -4.44,-2.22 -6.48,-3.54 -2.1,-1.24 -4.14,-2.37 -6.07,-3.39 -1.96,-1.02 -3.81,-1.52 -5.6,-1.52 -1.57,0 -2.87,0.28 -3.95,0.8 -1.05,0.52 -1.93,1.25 -2.62,2.12 -0.69,0.85 -1.27,1.89 -1.66,3.11 -0.41,1.2 -0.74,2.54 -1.02,3.99l-7.12 0c0.33,-2.29 0.8,-4.46 1.41,-6.53 0.63,-2.07 1.54,-3.89 2.76,-5.48 1.21,-1.62 2.79,-2.87 4.72,-3.78 1.9,-0.92 4.36,-1.4 7.31,-1.4 2.46,0 4.8,0.5 7.07,1.49 2.26,1 4.47,2.1 6.57,3.31 2.04,1.19 4.03,2.32 5.96,3.36 1.9,1.02 3.7,1.55 5.38,1.55 1.63,0 2.95,-0.25 3.97,-0.77 1.02,-0.5 1.9,-1.2 2.59,-2.07 0.69,-0.85 1.24,-1.89 1.63,-3.06 0.36,-1.19 0.69,-2.46 0.97,-3.81l7.28 0c-0.38,2.19 -0.88,4.31 -1.49,6.38 -0.63,2.07 -1.54,3.89 -2.73,5.5 -1.19,1.6 -2.73,2.89 -4.66,3.86 -1.9,0.97 -4.36,1.44 -7.31,1.44z"/>
  <path id="11" fill="#333333" fill-rule="nonzero" d="M1353.03 587.7c0,5.83 -0.88,11.18 -2.68,16.04 -1.77,4.88 -4.44,9.07 -8,12.61 -3.56,3.51 -7.97,6.28 -13.24,8.27 -5.3,1.99 -11.45,2.99 -18.46,2.99 -6.68,0 -12.61,-0.97 -17.77,-2.91 -5.19,-1.95 -9.52,-4.71 -13,-8.25 -3.48,-3.56 -6.1,-7.77 -7.92,-12.65 -1.79,-4.88 -2.7,-10.26 -2.7,-16.09 0,-5.73 0.85,-11.01 2.54,-15.82 1.71,-4.83 4.28,-9.02 7.73,-12.56 3.45,-3.56 7.78,-6.32 13.02,-8.34 5.24,-2.02 11.4,-3.04 18.52,-3.04 7.5,0 13.91,0.99 19.26,2.99 5.33,1.99 9.66,4.76 12.97,8.27 3.31,3.54 5.77,7.72 7.37,12.55 1.57,4.83 2.37,10.16 2.37,15.95zm-11.92 -0.05c0,-10.94 -2.48,-18.98 -7.48,-24.17 -4.99,-5.18 -12.36,-7.77 -22.13,-7.77 -9.82,0 -17.36,2.64 -22.6,7.95 -5.27,5.31 -7.89,13.3 -7.89,23.99 0,5.46 0.72,10.16 2.15,14.18 1.41,3.98 3.45,7.27 6.07,9.91 2.59,2.62 5.71,4.58 9.3,5.85 3.59,1.3 7.56,1.94 11.92,1.94 9.77,0 17.3,-2.57 22.65,-7.72 5.32,-5.16 8,-13.2 8,-24.17z"/>
 </g>
</svg>
